<svg width="120" height="120" viewBox="0 0 120 120" fill="none" xmlns="http://www.w3.org/2000/svg">
<rect width="120" height="120" fill="white"/>
<path d="M66.6207 44.6667C62.7582 44.6667 46.1747 45.0462 35.5 61.1404V44.6667C35.5 34.5198 27.258 26.2667 17.125 26.2667C13.7429 26.2667 11 29.0132 11 32.4C11 35.7867 13.7429 38.5333 17.125 38.5333C20.5014 38.5333 23.25 41.2857 23.25 44.6667V93.7333C23.25 100.499 28.7434 106 35.5 106H69.1875C70.8795 106 72.25 104.628 72.25 102.933V99.8667C72.25 96.4799 69.5071 93.7333 66.125 93.7333H60L84.5 75.3333V102.933C84.5 104.628 85.8705 106 87.5625 106H93.6875C95.3795 106 96.75 104.628 96.75 102.933V63.4232C94.7804 63.9349 92.7515 64.2933 90.625 64.2933C78.7942 64.2933 68.8966 55.8504 66.6207 44.6667V44.6667ZM96.75 26.2667H84.5L72.25 14V39.76C72.25 49.9222 80.4766 58.16 90.625 58.16C100.773 58.16 109 49.9222 109 39.76V14L96.75 26.2667ZM82.9688 41.6C81.2767 41.6 79.9062 40.2277 79.9062 38.5333C79.9062 36.839 81.2767 35.4667 82.9688 35.4667C84.6608 35.4667 86.0312 36.839 86.0312 38.5333C86.0312 40.2277 84.6608 41.6 82.9688 41.6ZM98.2812 41.6C96.5892 41.6 95.2188 40.2277 95.2188 38.5333C95.2188 36.839 96.5892 35.4667 98.2812 35.4667C99.9733 35.4667 101.344 36.839 101.344 38.5333C101.344 40.2277 99.9733 41.6 98.2812 41.6Z" fill="black"/>
</svg>
